# xmcd
#
# Track frame offsets: 
#        200
#        16957
#        35732
#        60792
#        74000
#        90665
#        108987
#        136197
#        155617
#        159372
#        176797
#        200925
#        226372
#        247250
#
# Disc length: 3728 seconds
#
# Revision: 2
# Processed by: cddbd v1.5.2PL0 Copyright (c) Steve Scherf et al.
# Submitted via: ExactAudioCopy v0.99pb4
#
DISCID=c30e8e0e
DTITLE=Gravy - From The Hip
DYEAR=1994
DGENRE=Blues
TTITLE0=Junkyard Man
TTITLE1=High and Dry
TTITLE2=Change
TTITLE3=Gravy
TTITLE4=She's Fine
TTITLE5=The Luv Bug
TTITLE6=Full Figured Friend
TTITLE7=That's One For Me
TTITLE8=Alabama Red
TTITLE9=Devil's Right Arm
TTITLE10=What Time Does the Bus Leave
TTITLE11=My Love Stays At Home
TTITLE12=Lucille Green Spanish
TTITLE13=Needle and Thread
EXTD=
EXTT0=
EXTT1=
EXTT2=
EXTT3=
EXTT4=
EXTT5=
EXTT6=
EXTT7=
EXTT8=
EXTT9=
EXTT10=
EXTT11=
EXTT12=
EXTT13=
PLAYORDER=
